<svg xmlns="http://www.w3.org/2000/svg" version="1.1" xmlns:xlink="http://www.w3.org/1999/xlink" xmlns:svgjs="http://svgjs.com/svgjs" width="1000" height="1000"><rect width="1000" height="1000" rx="250" ry="250" fill="#ffffff"></rect><g transform="matrix(6.944444444444445,0,0,6.944444444444445,0.5459450350867314,250.89167077673807)"><svg xmlns="http://www.w3.org/2000/svg" version="1.1" xmlns:xlink="http://www.w3.org/1999/xlink" xmlns:svgjs="http://svgjs.com/svgjs" width="144" height="72"><svg xmlns="http://www.w3.org/2000/svg" viewBox="0 0 144 72"><path d="M11.9 37.7l-2.4-3.5.4-.2c.8.6 1.2 1 1.7 1.3.3.2.7.4.8.4.2 0 .6 0 .9-.1.4-.1.8-.3 1.1-.6.7-.4 1.1-1 1.3-1.7s.1-1.3-.2-1.9c-.3-.4-.7-.7-1.2-.8-.6-.1-1.3-.1-2.5.1-.1 0-.3.1-.7.1-1.2.2-2.2.2-2.9.1-.4.1-.9 0-1.2-.3-.3-.2-.7-.7-1-1-.8-1.1-.9-2.4-.6-3.6s1.3-2.4 2.7-3.4c.4-.3 1-.6 1.6-.9s1.2-.6 2-.9l2 3.2-.3.2c-.7-.4-1.1-.9-1.5-1.1-.3-.2-.6-.4-.7-.4-.2 0-.4 0-.8.1-.3.1-.8.3-1.1.6-.7.4-1 .9-1.2 1.6-.1.5-.1 1.1.3 1.6.2.3.6.6 1 .8s.8.2 1.2.1c.2 0 .4-.1.8-.1 2.2-.3 3.8-.4 4.6-.2.4.1.9.3 1.2.6.3.2.7.6.9 1 .8 1.1.9 2.4.4 3.7-.4 1.3-1.5 2.5-3 3.5-.6.3-1.1.7-1.8 1-.4.3-1.1.5-1.8.7zm12.6-8.4l-.3-.3c.6-.6.9-1 1.2-1.3.2-.4.3-.7.3-.9 0-.2-.2-.6-.4-1.2-.3-.6-.7-1.6-1.5-3l-1-1.9s-.2-.4-.7-1.3c-.4-.9-.9-1.8-1.3-2.6-.1 0-.2.1-.3.1-.4.2-.8.4-1 .6-.6.3-1 .6-1.3.8-.3.2-.4.3-.6.4-.1.1 0 .8.1 1.8 0 .3.1.6.1.8l-.4.1-1.9-3.6c.6-.2 1.3-.6 2.4-1.1 1-.6 2.2-1.1 3.7-1.9 1.3-.7 2.6-1.3 3.6-1.9 1-.6 1.8-1 2.2-1.3l1.9 3.6-.3.1c-.1-.1-.3-.3-.7-.6-.8-.7-1.2-1-1.5-1-.1 0-.3 0-.7.2-.3.1-.8.3-1.3.7-.2.1-.6.3-1 .6-.1.1-.2.1-.3.2.2.6.7 1.3 1.2 2.4.6 1.1 1 1.9 1.3 2.6 1.1 2.1 1.9 3.5 2.2 4s.6.9.7.9c.2.1.4.1 1 .1.4 0 1-.1 1.7-.2l.2.3c-.7.3-1.3.6-2 .9s-1.2.6-1.8.9c-.6.3-1.1.6-1.7.9-.5.3-1.2.7-1.8 1.1zm9.6-5.3l-.1-.4.1-.1c.9-.7 1.5-1.3 1.6-1.8.2-.8.4-2.6.8-5.3s.7-5.7 1-9.1l1.9-.7c2.1 2.7 4 4.9 5.7 7.1 1.8 2 2.9 3.4 3.6 3.9.3.3.9.4 1.9.4h.1l.1.3c-.8.2-1.5.3-2 .4-.6.1-1.1.3-1.6.4-.6.2-1.2.4-1.9.7-.7.2-1.3.6-2.1.9v-.2c.7-.4 1.1-.8 1.5-1.1.2-.2.3-.4.2-.6 0-.1-.2-.4-.6-.9-.3-.4-.8-1-1.3-1.7l-5.2 1.7c-.2 1-.2 1.8-.2 2.2s0 .8.1 1 .2.3.6.3h1.6l.1.3c-.7.1-1.2.3-1.8.4s-1 .2-1.5.4c-.2.1-.6.2-1 .3-.5.7-.9.9-1.6 1.2zm3.8-7.5l4-1.3c-.4-.7-1-1.2-1.6-2-.6-.7-1.2-1.5-1.9-2.2-.1 1-.2 2.2-.4 3.9l-.1 1.6zm14 1.6v-.4c.6-.3 1-.6 1.3-.8.3-.2.6-.4.6-.6s.1-.4 0-1c0-.6-.1-1.6-.2-3l-.1-1.8-.3-1.5c-.1-1.5-.2-2.5-.3-3-.1-.6-.1-.9-.2-.9-.1-.1-.4-.2-.7-.4-.3-.2-.9-.3-1.5-.6v-.3h1.6c.5 0 .8 0 1.1-.1.4 0 .9-.1 1.3-.1.4-.1.9-.1 1.2-.2 1.9 2.1 4.5 4.9 8 8.4l.4.4-.1-2.5c-.1-1.8-.3-3.1-.3-3.9-.1-.8-.1-1.2-.2-1.5 0-.1-.2-.3-.6-.4-.3-.1-.9-.3-1.6-.6v-.4h1.8c.6 0 1 0 1.3-.1.2 0 .6-.1 1-.1.4-.1 1.1-.1 1.9-.3v.4c-.7.3-1.1.6-1.5.8-.3.2-.4.4-.6.6 0 .2 0 1.1.1 2.5.1 1.5.2 3.7.6 6.7 0 .4.1 1 .1 1.5 0 .6.1 1.3.2 2.2l-1.5.1c-1.6-1.7-3.1-3.4-4.8-5s-3.4-3.5-5.3-5.3l.3 4.4c.1 1.7.2 2.8.3 3.5s.1 1.1.2 1.3c0 .1.2.3.6.4.3.2.9.3 1.6.6v.4h-1.7c-.5 0-.9 0-1.2.1-.3 0-.8.1-1.3.1-.3.2-.8.3-1.5.4zm18.2-1.6V16c.6-.2 1-.3 1.5-.4.3-.1.6-.3.7-.4.1-.1.2-.4.3-1.1.1-.7.3-2.1.6-4.6.3-2.4.4-3.8.4-4.5V3.9c-.1-.1-.2-.3-.6-.6-.3-.2-.8-.6-1.2-.8v-.4c.7.1 1.2.2 1.8.3.6.1 1 .2 1.5.2.4.1 1.1.1 2 .2.9.2 1.5.2 1.9.2 2.7.3 4.7 1.2 6.2 2.7 1.3 1.5 1.9 3.4 1.7 5.6-.2 2.1-1.2 3.7-2.9 4.8s-3.7 1.5-6.3 1.2c-.4-.1-1.2-.2-2.2-.3-1-.2-1.7-.3-2.2-.3-.4 0-.9-.1-1.5-.1-.4 0-1.1 0-1.7-.1zm5.5-.6c.2 0 .4.1.6.1s.3.1.6.1c1.8.2 3.2-.1 4.4-1 1.1-.9 1.8-2.2 2-4.1.2-2-.1-3.6-1-4.7S79.9 4.4 78 4.1c-.3 0-.4-.1-.7-.1h-.4c.2.7.1 1.7-.1 2.9-.2 1.3-.3 2.4-.3 3-.1.7-.2 1.7-.3 2.9-.4 1.4-.5 2.4-.6 3.1zm11.6 2.7l.1-.3h.1c1.1-.1 1.9-.2 2.2-.7.6-.6 1.8-1.9 3.6-3.9s3.7-4.4 5.9-7.1l1.9.6c.2 3.4.6 6.4.8 9.1.3 2.7.6 4.5.8 5.3.1.4.6.9 1.3 1.5l.1.1-.1.3c-.7-.2-1.3-.6-1.9-.7-.6-.2-1.1-.3-1.6-.4-.6-.1-1.2-.3-1.9-.4-.7-.1-1.5-.3-2.2-.4l.1-.3c.9 0 1.5 0 1.8-.1s.4-.2.6-.3v-1c0-.6-.1-1.3-.1-2.1l-5.2-1.7c-.7.8-1.1 1.5-1.5 1.8-.3.4-.4.7-.6.9 0 .2 0 .3.3.6.2.2.7.6 1.3.9l-.1.3c-.7-.2-1.2-.4-1.7-.7-.6-.2-1-.3-1.5-.4-.2-.1-.7-.1-1-.2-.2-.4-.8-.5-1.5-.7zm7.3-4l4 1.1c-.1-.8-.1-1.7-.2-2.6s-.2-1.8-.3-2.9c-.7.8-1.5 1.8-2.6 3l-.9 1.4zm10.6 9.6l.2-.3h1.6c.4 0 .7-.1.8-.2.1-.1.3-.4.7-1 .3-.6 1-1.9 2-4.1 1-2.1 1.7-3.5 1.9-4 .2-.6.3-.9.3-1.1 0-.1-.1-.3-.3-.7-.2-.3-.6-.8-.9-1.2l.2-.3c.6.3 1.1.7 1.6.9.4.2 1 .6 1.5.8s1.1.6 2.1.9c.9.4 1.6.7 2.1.9 1.8.9 3 1.8 3.6 2.8s.7 2 .1 3.1c-.3.8-.9 1.3-1.7 1.7-.8.3-1.6.4-2.6.3 0 .2 0 .7.1 1.2.2 4.3.7 6.5 1.5 6.8h.1l-.2.4c-.1 0-.1-.1-.2-.1-.7-.3-1.1-.6-1.3-.8-.3-.2-1.1-.6-2.1-1-.2-.1-.3-.1-.4-.2-.1-1.6-.2-3.8-.4-6.7 0-.3 0-.7-.1-.8 0 0-.1 0-.2-.1s-.2-.1-.3-.2c-.1 0-.2-.1-.4-.2l-.6-.3-.7 1.5c-.4 1-.8 1.7-1 2.1s-.3.8-.3.9.1.4.3.7c.2.3.6.8.9 1.2l-.2.3c-.6-.3-1-.7-1.6-.9-.6-.3-1.1-.6-1.8-.9-.6-.3-1.2-.6-1.8-.8-1.4-.2-2-.4-2.5-.6zm10.7-9.5c-.3.6-.7 1.2-.9 1.7-.3.6-.6 1.1-.8 1.6-.2.4-.3.8-.4 1l-.3.6s.1.1.2.1.2.1.2.1c1.2.6 2.2.8 3.1.7.9-.1 1.5-.7 1.9-1.5.3-.8.3-1.5 0-2.1-.3-.7-1.1-1.3-2.2-1.8-.2-.1-.3-.1-.4-.2-.2-.1-.3-.2-.4-.2zm4.7 17.3l.2-.3c.6.1 1.1.1 1.5.1s.7 0 .8-.1c.1-.1.3-.3.7-.9.3-.6 1.1-1.8 2.4-3.9 1.2-2 2-3.2 2.2-3.8.3-.6.4-.9.4-1s-.1-.4-.3-.8c-.2-.3-.4-.8-.8-1.2l.2-.3c.6.3 1 .8 1.6 1 .4.3.9.6 1.2.8.4.2 1 .6 1.8 1s1.3.7 1.7.9c2.4 1.5 3.8 3 4.5 5 .7 1.9.4 3.9-.8 5.8-1.1 1.8-2.6 2.9-4.6 3.2-1.9.3-4-.1-6.2-1.5-.4-.2-1-.7-1.9-1.2-.8-.6-1.5-1-1.9-1.2-.3-.2-.8-.4-1.3-.8-.3-.2-.8-.4-1.4-.8zm5.4 1.7c.1.1.3.2.4.3s.3.2.4.3c1.6.9 3 1.2 4.4.9 1.3-.3 2.6-1.3 3.5-3 1-1.7 1.3-3.2 1-4.7s-1.2-2.7-2.9-3.6l-.6-.3c-.1-.1-.2-.1-.3-.2-.3.6-.9 1.5-1.6 2.6-.7 1.1-1.2 2-1.6 2.6-.3.6-.9 1.5-1.6 2.6-.3 1.2-.8 1.9-1.1 2.5z" opacity=".38"></path><path d="M11.6 37.3l-2.4-3.5.3-.1c.8.6 1.2 1 1.7 1.3.3.2.7.4.8.4.2 0 .6 0 .9-.1.4-.1.8-.3 1.1-.6.7-.4 1.1-1 1.3-1.7s.1-1.3-.2-1.9c-.3-.4-.7-.7-1.2-.8-.6-.1-1.3-.1-2.5.1-.1 0-.3.1-.7.1-1.2.2-2.2.2-2.9.1-.4-.1-.9-.2-1.2-.6-.3-.2-.7-.7-1-1-.8-1.1-.9-2.4-.6-3.6S6.3 23 7.7 22c.4-.3 1-.6 1.6-.9s1.2-.6 2-.9l2 3.2-.3.6c-.7-.4-1.1-.9-1.5-1.1s-.6-.4-.7-.4c-.2 0-.4 0-.8.1-.3.1-.8.3-1.1.6-.7.4-1 .9-1.2 1.6-.1.6-.1 1.1.3 1.7.2.3.6.6 1 .8.4.2.8.2 1.2.1.2 0 .4-.1.8-.1 2.2-.3 3.8-.4 4.6-.2.4.1.9.3 1.2.6s.7.6.9 1c.8 1.1.9 2.4.4 3.7-.4 1.3-1.5 2.5-3 3.5-.6.3-1.1.7-1.8 1-.5-.1-1.2.2-1.7.4zM24.1 29l-.2-.3c.6-.6.9-1 1.2-1.3.2-.4.3-.7.3-.9 0-.2-.2-.6-.4-1.2-.3-.6-.8-1.6-1.6-2.9l-1-2s-.2-.4-.7-1.3-.9-1.8-1.3-2.6c-.1 0-.2.1-.3.1-.4.2-.8.4-1 .6-.6.3-1 .6-1.3.8-.3.2-.4.3-.6.4-.1.1 0 .8.1 1.8 0 .3.1.6.1.8l-.3.1-1.9-3.6c.6-.2 1.3-.6 2.4-1.1 1-.6 2.2-1.1 3.7-1.9 1.3-.7 2.6-1.3 3.6-1.9 1-.6 1.8-1 2.2-1.3l1.9 3.6-.3.1c-.1-.1-.3-.3-.7-.6-.8-.7-1.2-1-1.5-1-.1 0-.3 0-.7.2-.3.1-.8.3-1.3.7-.2.1-.6.3-1 .6-.1.1-.2.1-.3.2.2.6.7 1.3 1.2 2.4.6 1.1 1 1.9 1.3 2.6 1.1 2.1 1.9 3.5 2.2 4s.6.9.7.9c.2.1.4.1 1 .1.4 0 1-.1 1.7-.2l.2.3c-.7.3-1.3.6-2 .9s-1.2.6-1.8.9-1.1.6-1.7.9c-.5.2-1.2.6-1.9 1.1zm9.5-5.4l-.1-.3.1-.1c.9-.7 1.5-1.3 1.6-1.8.2-.8.4-2.6.8-5.3s.7-5.7 1-9.1l1.9-.7c2.1 2.7 4 4.9 5.7 7.1 1.8 2 2.9 3.4 3.6 3.9.3.3.9.4 1.9.4h.1l.1.3c-.8.2-1.5.3-2 .4-.6.1-1.1.3-1.6.4-.6.2-1.2.4-1.9.7-.7.2-1.3.6-2.1.9v-.3c.7-.4 1.1-.8 1.5-1.1.2-.2.3-.4.2-.6 0-.1-.2-.4-.6-.9-.3-.4-.8-1-1.3-1.7l-5.2 1.7c-.1 1-.1 1.8-.2 2.4 0 .4 0 .8.1 1s.2.3.6.3h1.6l.1.3c-.7.1-1.2.3-1.8.4s-1 .2-1.5.4c-.2.1-.6.2-1 .3-.3.5-.9.7-1.6 1zm3.8-7.5l4-1.3c-.4-.7-1-1.2-1.6-2-.6-.7-1.2-1.5-1.9-2.2-.1 1-.2 2.2-.4 3.9l-.1 1.6zm14.1 1.7v-.4c.6-.3 1-.6 1.3-.8s.6-.4.6-.6c0-.1.1-.4 0-1 0-.6-.1-1.6-.2-3l-.1-1.8-.1-1.7c-.1-1.5-.2-2.5-.3-2.9-.1-.6-.1-.9-.2-.9-.1-.1-.3-.2-.7-.4-.3-.2-.9-.3-1.5-.6v-.3h1.6c.5 0 .8 0 1.1-.1.4 0 .9-.1 1.3-.1.5-.2.8-.2 1.3-.3 1.9 2.1 4.5 4.9 8 8.4l.4.4-.2-2.5c-.1-1.8-.3-3.1-.3-3.9-.1-.8-.1-1.2-.2-1.5 0-.1-.2-.3-.6-.4-.3-.1-.9-.3-1.6-.6v-.3h1.8c.6 0 1 0 1.3-.1.2 0 .6-.1 1-.1.4-.1 1.1-.1 1.9-.3v.4c-.7.3-1.1.6-1.5.8-.3.2-.4.4-.6.6 0 .2 0 1.1.1 2.5.1 1.5.2 3.7.6 6.7 0 .4.1 1 .1 1.5 0 .6.1 1.3.2 2.2l-1.5.1c-1.6-1.7-3.1-3.4-4.8-5-1.7-1.7-3.4-3.5-5.3-5.3l.3 4.4c.1 1.7.2 2.8.3 3.5s.1 1.1.2 1.3c0 .1.2.3.6.4.3.2.9.3 1.6.6v.3h-1.7c-.5 0-.9 0-1.2.1-.3 0-.8.1-1.3.1-.4.4-1 .5-1.7.6zm18.2-1.7v-.4c.6-.2 1-.3 1.5-.4.3-.1.6-.3.7-.4s.2-.4.3-1.1c.1-.7.3-2.1.6-4.6.3-2.4.4-3.8.4-4.5V3.6c-.1-.1-.2-.3-.6-.6-.3-.2-.8-.6-1.2-.8v-.4l1.8.3c.6.1 1 .2 1.5.2.4.1 1.1.1 2 .2.9 0 1.6.1 1.9.1 2.7.3 4.7 1.2 6.2 2.7 1.3 1.5 1.9 3.4 1.7 5.6-.2 2.1-1.2 3.7-2.9 4.8-1.7 1.1-3.7 1.5-6.3 1.2-.4-.1-1.2-.2-2.2-.3-1-.2-1.7-.3-2.2-.3-.4 0-.9-.1-1.5-.1-.5-.1-1-.1-1.7-.1zm5.6-.7c.2 0 .4.1.6.1s.3.1.6.1c1.8.2 3.2-.1 4.4-1s1.8-2.2 2-4.1c.2-2-.1-3.6-1-4.7s-2.2-1.9-4.1-2.1c-.3 0-.4-.1-.7-.1h-.4c-.1.7-.2 1.7-.3 3-.2 1.3-.3 2.4-.3 3-.1.7-.2 1.7-.3 2.9-.3 1.4-.4 2.4-.5 2.9zm11.6 3l.1-.4h.1c1.1-.1 1.9-.2 2.2-.7.6-.6 1.8-1.9 3.6-3.9s3.7-4.4 5.9-7.1l1.9.6c.2 3.4.6 6.4.8 9.1.3 2.7.6 4.5.8 5.3.1.4.6.9 1.3 1.5l.1.1-.1.3c-.7-.2-1.3-.6-1.9-.7-.6-.2-1.1-.3-1.6-.4-.6-.1-1.2-.3-1.9-.4-.7-.1-1.5-.3-2.2-.4l.1-.3c.9 0 1.5 0 1.8-.1s.4-.2.6-.3v-1c0-.6-.1-1.3-.1-2.1L93.1 16c-.7.8-1.1 1.5-1.5 1.8-.3.4-.4.7-.6.9 0 .2 0 .3.3.6.2.2.7.6 1.3.9l-.1.3c-.7-.2-1.2-.4-1.7-.7-.6-.2-1-.3-1.5-.4-.2-.1-.7-.1-1-.2-.1-.6-.7-.7-1.4-.8zm7.3-4.2l4 1.1c-.1-.8-.1-1.7-.2-2.6s-.2-1.8-.3-2.9c-.7.8-1.5 1.8-2.6 3l-.9 1.4zm10.4 9.5l.2-.3h1.6c.4 0 .7-.1.8-.2.1-.1.3-.4.7-1 .3-.6 1-1.9 2-4.1 1-2.1 1.7-3.5 1.9-4 .2-.6.3-.9.3-1.1 0-.1-.1-.3-.3-.7-.2-.3-.6-.8-.9-1.2l.2-.3c.6.3 1.1.7 1.6.9.4.2 1 .6 1.5.8.4.2 1.1.6 2.1.9.9.4 1.6.7 2.1.9 1.8.9 3 1.8 3.6 2.8s.7 2 .1 3.1c-.3.8-.9 1.3-1.7 1.7-.8.3-1.6.4-2.6.3 0 .2 0 .7.1 1.2.2 4.3.7 6.5 1.5 6.8h.1l-.2.4c-.1 0-.1-.1-.2-.1-.7-.3-1.1-.6-1.3-.8-.3-.2-1.1-.6-2.1-1-.2-.1-.3-.1-.4-.2-.1-1.6-.2-3.8-.4-6.7 0-.3 0-.7-.1-.8 0 0-.1 0-.2-.1s-.2-.1-.3-.2c-.1 0-.2-.1-.4-.2l-.6-.3-.7 1.5c-.4 1-.8 1.7-1 2.1s-.3.8-.3.9.1.4.3.7c.2.3.6.8.9 1.2l-.2.3c-.6-.3-1-.7-1.6-.9-.6-.3-1.1-.6-1.8-.9-.6-.3-1.2-.6-1.8-.8-1.4-.1-1.9-.3-2.5-.6zm10.9-9.4c-.3.6-.7 1.2-.9 1.7-.3.6-.6 1.1-.8 1.6-.2.4-.3.8-.4 1l-.3.6s.1.1.2.1.2.1.2.1c1.2.6 2.2.8 3.1.7.9-.1 1.5-.7 1.9-1.5.3-.8.3-1.5 0-2.1-.3-.7-1.1-1.3-2.2-1.8-.2-.1-.3-.1-.4-.2-.3-.2-.3-.2-.4-.2zm4.6 17.3l.2-.3c.6.1 1.1.1 1.5.1s.7 0 .8-.1c.1-.1.3-.3.7-.9.3-.6 1.1-1.8 2.4-3.9 1.2-2 2-3.2 2.2-3.8.3-.6.4-.9.4-1s-.1-.4-.3-.8c-.2-.3-.4-.8-.8-1.2l.2-.3c.6.3 1 .8 1.6 1 .4.3.9.6 1.2.8.4.2 1 .6 1.8 1s1.3.7 1.7.9c2.4 1.5 3.8 3 4.5 5 .7 1.9.4 3.9-.8 5.8-1.1 1.8-2.6 2.9-4.6 3.2-1.9.3-4-.1-6.2-1.5-.4-.2-1-.7-1.9-1.2-.8-.6-1.5-1-1.9-1.2-.3-.2-.8-.4-1.3-.8-.3-.2-.8-.5-1.4-.8zm5.4 1.8c.1.1.3.2.4.3s.3.2.4.3c1.6.9 3 1.2 4.4.9 1.3-.3 2.6-1.3 3.5-3 1-1.7 1.3-3.2 1-4.7s-1.2-2.7-2.9-3.6l-.6-.3c-.1-.1-.2-.1-.3-.2-.3.6-.9 1.5-1.6 2.6-.7 1.1-1.2 2-1.6 2.6s-.9 1.5-1.6 2.6c-.3 1-.8 1.9-1.1 2.5z" fill="#00539f"></path><path opacity=".36" fill-rule="evenodd" clip-rule="evenodd" d="M13.9 42.7l44.5-15.8L98 43.8H83.6l-1.3 10.3-58.4-.5 1-9.1z"></path><path d="M54.9 53.7H59c0 .4.2.8.4 1s.7.3 1.2.3c.4 0 .9-.1 1.2-.2.3-.2.4-.4.6-.7.1-.4-.4-.9-1.6-1.2-.2-.1-.4-.1-.6-.1-.9-.2-1.7-.4-2.1-.7-.6-.2-.9-.4-1.1-.6-.4-.3-.8-.8-.9-1.3-.1-.6-.2-1.1-.1-1.8.2-1.3.9-2.4 2-3.1 1.1-.8 2.5-1.1 4.3-1.1 1.7 0 2.9.3 3.8 1.1.8.7 1.2 1.8 1.1 3.1h-4c0-.3-.1-.7-.3-.9s-.6-.3-1.1-.3c-.4 0-.8.1-1 .2-.2.1-.4.3-.4.7-.1.4.4.8 1.6 1.1.1 0 .2 0 .2.1.1 0 .4.1.7.2 1.5.4 2.4.8 2.8 1.1.6.4.9.9 1 1.3.2.4.2 1.1.1 1.8-.2 1.5-1 2.6-2.1 3.4-1.1.8-2.7 1.2-4.5 1.2-1.7 0-3-.4-3.9-1.2-1.2-.8-1.5-1.9-1.4-3.4z" fill="#00539f"></path><path d="M54.9 53.7H59c0 .4.2.8.4 1s.7.3 1.2.3c.4 0 .9-.1 1.2-.2.3-.2.4-.4.6-.7.1-.4-.4-.9-1.6-1.2-.2-.1-.4-.1-.6-.1-.9-.2-1.7-.4-2.1-.7-.6-.2-.9-.4-1.1-.6-.4-.3-.8-.8-.9-1.3-.1-.6-.2-1.1-.1-1.8.2-1.3.9-2.4 2-3.1 1.1-.8 2.5-1.1 4.3-1.1 1.7 0 2.9.3 3.8 1.1.8.7 1.2 1.8 1.1 3.1h-4c0-.3-.1-.7-.3-.9s-.6-.3-1.1-.3c-.4 0-.8.1-1 .2-.2.1-.4.3-.4.7-.1.4.4.8 1.6 1.1.1 0 .2 0 .2.1.1 0 .4.1.7.2 1.5.4 2.4.8 2.8 1.1.6.4.9.9 1 1.3.2.4.2 1.1.1 1.8-.2 1.5-1 2.6-2.1 3.4-1.1.8-2.7 1.2-4.5 1.2-1.7 0-3-.4-3.9-1.2-1.2-.8-1.5-1.9-1.4-3.4z" fill="none" stroke="#fff" stroke-width=".5"></path><path d="M69.9 45.1h2.8l-.8 4.6v.7c.1.1.2.2.4.2s.3-.1.6-.2c.1-.2.2-.4.3-.7l.8-4.6h2.7l-.7 4.5c-.2 1-.6 1.8-1.2 2.4-.7.4-1.6.8-2.7.8-.7 0-1.2-.1-1.6-.2-.4-.1-.8-.3-1-.7-.2-.2-.3-.6-.3-.8 0-.3 0-.8.1-1.3l.6-4.7zm6.8 7.5l1.3-7.5h3.6c1 0 1.8.2 2.2.6.4.4.6 1 .4 1.8-.1.8-.4 1.5-1.1 1.9-.6.4-1.3.7-2.4.7H80l-.4 2.6c-.1-.1-2.9-.1-2.9-.1zm3.9-5.8l-.2 1.6h.2c.3 0 .6-.1.7-.2.2-.1.3-.3.3-.6 0-.2 0-.4-.1-.6-.1-.1-.3-.2-.7-.2h-.2zm3.8 5.8l1.3-7.5h3.6c1 0 1.8.2 2.2.6.4.4.6 1 .4 1.8-.1.8-.4 1.5-1.1 1.9-.6.4-1.3.7-2.4.7h-.9l-.4 2.6c.1-.1-2.7-.1-2.7-.1zm3.7-5.8l-.2 1.6h.2c.3 0 .6-.1.7-.2.2-.1.3-.3.3-.6 0-.2 0-.4-.1-.6-.1-.1-.3-.2-.7-.2h-.2zm9.6 3.9l-.3 2h-5.5l1.2-7.5h2.8l-.9 5.5h2.7zm4.8-5.6l-1.3 7.5h-2.8l1.3-7.5h2.8zm.1 7.5l1.3-7.5h5.5l-.3 1.9h-2.7l-.1.8h2.5l-.3 1.9h-2.6l-.1.9h2.8l-.3 1.9h-5.6v.1h-.1zm6.8-2.3h2.6v.1c0 .2 0 .4.1.6.1.1.2.2.4.2s.3 0 .6-.1c.1-.1.2-.2.2-.4v-.3c0-.1-.1-.1-.1-.2-.1-.1-.4-.1-.8-.2s-.8-.2-1-.3c-.6-.2-1-.4-1.2-.8-.2-.3-.3-.8-.2-1.2.1-.8.6-1.3 1.1-1.8.7-.4 1.5-.7 2.6-.7 1 0 1.7.2 2.1.6.4.3.6.9.4 1.6v.1h-2.5c0-.2 0-.3-.1-.4-.1-.1-.2-.1-.4-.1s-.3 0-.4.1-.2.2-.2.3c0 .2.2.4.8.7.2 0 .3.1.4.1.9.2 1.6.6 1.9.9.3.3.3.8.3 1.5-.1.8-.6 1.5-1.2 1.9-.7.4-1.6.7-2.6.7s-1.8-.2-2.4-.6c-.4-.3-.7-.9-.6-1.7.2-.4.2-.5.2-.6z" fill="#00539f"></path><path d="M69.9 45.1h2.8l-.8 4.6v.7c.1.1.2.2.4.2s.3-.1.6-.2c.1-.2.2-.4.3-.7l.8-4.6h2.7l-.7 4.5c-.2 1-.6 1.8-1.2 2.4-.7.4-1.6.8-2.7.8-.7 0-1.2-.1-1.6-.2-.4-.1-.8-.3-1-.7-.2-.2-.3-.6-.3-.8 0-.3 0-.8.1-1.3l.6-4.7zm6.8 7.5l1.3-7.5h3.6c1 0 1.8.2 2.2.6.4.4.6 1 .4 1.8-.1.8-.4 1.5-1.1 1.9-.6.4-1.3.7-2.4.7H80l-.4 2.6c-.1-.1-2.9-.1-2.9-.1zm3.9-5.8l-.2 1.6h.2c.3 0 .6-.1.7-.2.2-.1.3-.3.3-.6 0-.2 0-.4-.1-.6-.1-.1-.3-.2-.7-.2h-.2zm3.8 5.8l1.3-7.5h3.6c1 0 1.8.2 2.2.6.4.4.6 1 .4 1.8-.1.8-.4 1.5-1.1 1.9-.6.4-1.3.7-2.4.7h-.9l-.4 2.6c.1-.1-2.7-.1-2.7-.1zm3.7-5.8l-.2 1.6h.2c.3 0 .6-.1.7-.2.2-.1.3-.3.3-.6 0-.2 0-.4-.1-.6-.1-.1-.3-.2-.7-.2h-.2zm9.6 3.9l-.3 2h-5.5l1.2-7.5h2.8l-.9 5.5h2.7zm4.8-5.6l-1.3 7.5h-2.8l1.3-7.5h2.8zm.1 7.5l1.3-7.5h5.5l-.3 1.9h-2.7l-.1.8h2.5l-.3 1.9h-2.6l-.1.9h2.8l-.3 1.9h-5.6v.1h-.1zm6.8-2.3h2.6v.1c0 .2 0 .4.1.6.1.1.2.2.4.2s.3 0 .6-.1c.1-.1.2-.2.2-.4v-.3c0-.1-.1-.1-.1-.2-.1-.1-.4-.1-.8-.2s-.8-.2-1-.3c-.6-.2-1-.4-1.2-.8-.2-.3-.3-.8-.2-1.2.1-.8.6-1.3 1.1-1.8.7-.4 1.5-.7 2.6-.7 1 0 1.7.2 2.1.6.4.3.6.9.4 1.6v.1h-2.5c0-.2 0-.3-.1-.4-.1-.1-.2-.1-.4-.1s-.3 0-.4.1-.2.2-.2.3c0 .2.2.4.8.7.2 0 .3.1.4.1.9.2 1.6.6 1.9.9.3.3.3.8.3 1.5-.1.8-.6 1.5-1.2 1.9-.7.4-1.6.7-2.6.7s-1.8-.2-2.4-.6c-.4-.3-.7-.9-.6-1.7.2-.4.2-.5.2-.6h0z" fill="none" stroke="#fff" stroke-width=".5"></path><path d="M48.7 45L51 31.6h5.4c1.1 0 2 0 2.5.1.6.1.9.1 1.3.3.7.2 1 .7 1.3 1.2.2.6.3 1.2.2 2-.1.6-.3 1.1-.7 1.6-.3.4-.8.8-1.3 1.1.7.2 1.1.7 1.3 1.1.2.6.3 1.1.1 2-.1.8-.4 1.5-.8 2-.4.6-1 1-1.7 1.3-.4.2-.9.3-1.5.4-.4.3-1.3.3-2.5.3h-5.9zm4.6-3.1h1.9c.7 0 1.1-.1 1.5-.3.3-.2.4-.6.6-.9.1-.4 0-.8-.2-.9-.2-.2-.7-.3-1.3-.3h-1.9l-.6 2.4zm.8-5h1.7c.6 0 1-.1 1.2-.2.2-.2.4-.4.6-.9.1-.4 0-.8-.2-.9s-.8-.2-1.7-.2h-1.1l-.5 2.2z" fill="#00539f"></path><path d="M48.7 45L51 31.6h5.4c1.1 0 2 0 2.5.1.6.1.9.1 1.3.3.7.2 1 .7 1.3 1.2.2.6.3 1.2.2 2-.1.6-.3 1.1-.7 1.6-.3.4-.8.8-1.3 1.1.7.2 1.1.7 1.3 1.1.2.6.3 1.1.1 2-.1.8-.4 1.5-.8 2-.4.6-1 1-1.7 1.3-.4.2-.9.3-1.5.4-.4.3-1.3.3-2.5.3h-5.9zm4.6-3.1h1.9c.7 0 1.1-.1 1.5-.3.3-.2.4-.6.6-.9.1-.4 0-.8-.2-.9-.2-.2-.7-.3-1.3-.3h-1.9l-.6 2.4zm.8-5h1.7c.6 0 1-.1 1.2-.2.2-.2.4-.4.6-.9.1-.4 0-.8-.2-.9s-.8-.2-1.7-.2h-1.1l-.5 2.2z" fill="none" stroke="#fff" stroke-width=".5"></path><path d="M63.9 32.1h2.8l-.8 4.6v.7c.1.1.2.2.4.2s.3-.1.6-.2c.1-.2.2-.4.3-.7l.8-4.6h2.8l-.8 4.5c-.2 1-.6 1.8-1.2 2.4-.7.4-1.6.8-2.7.8-.7 0-1.2-.1-1.6-.2-.4-.1-.8-.3-1-.7-.2-.2-.3-.6-.3-.8 0-.3 0-.8.1-1.3l.6-4.7zm11.1 0l-1.3 7.5h-2.8l1.3-7.5H75zm5.9 5.6l-.3 2h-5.5l1.2-7.5h2.8l-.9 5.5h2.7zm.5 1.9l1.3-7.5H86c1.3 0 2.4.3 2.8.9.6.6.7 1.6.4 2.8-.2 1.2-.7 2.2-1.5 2.8-.8.7-1.8.9-3.1.9l-3.2.1c0-.1 0 0 0 0zm3.2-1.6h.2c.4 0 .9-.1 1.1-.4.2-.3.4-.9.6-1.6.1-.7.1-1.2 0-1.6-.1-.3-.4-.4-.9-.4h-.2l-.8 4zm9.3-5.9l-1.3 7.5h-2.8l1.3-7.5h2.8zm3.2 2.9l-.8 4.6H94l1.3-7.5h3.4l.8 4.5.8-4.5h2.4l-1.3 7.5H98l-.9-4.6zm12.8 4.3c-.7.2-1.3.3-2 .3-.7.1-1.2.1-1.8.1-1.1 0-2-.3-2.6-1s-.8-1.7-.6-2.9c.2-1.2.8-2.1 1.6-2.8.8-.7 1.9-1 3.2-1 1 0 1.8.2 2.2.7.4.4.7 1 .6 1.8H108c0-.2 0-.3-.1-.4-.1-.1-.2-.1-.4-.1-.4 0-.7.1-.9.4-.2.3-.4.9-.6 1.7-.1.7-.1 1.2 0 1.5s.3.4.8.4c.1 0 .2 0 .4-.1.1 0 .2-.1.4-.2l.1-.9h-1l.2-1.5h3.7l-.7 4z" fill="#00539f"></path><path d="M63.9 32.1h2.8l-.8 4.6v.7c.1.1.2.2.4.2s.3-.1.6-.2c.1-.2.2-.4.3-.7l.8-4.6h2.8l-.8 4.5c-.2 1-.6 1.8-1.2 2.4-.7.4-1.6.8-2.7.8-.7 0-1.2-.1-1.6-.2-.4-.1-.8-.3-1-.7-.2-.2-.3-.6-.3-.8 0-.3 0-.8.1-1.3l.6-4.7zm11.1 0l-1.3 7.5h-2.8l1.3-7.5H75zm5.9 5.6l-.3 2h-5.5l1.2-7.5h2.8l-.9 5.5h2.7zm.5 1.9l1.3-7.5H86c1.3 0 2.4.3 2.8.9.6.6.7 1.6.4 2.8-.2 1.2-.7 2.2-1.5 2.8-.8.7-1.8.9-3.1.9l-3.2.1c0-.1 0 0 0 0zm3.2-1.6h.2c.4 0 .9-.1 1.1-.4.2-.3.4-.9.6-1.6.1-.7.1-1.2 0-1.6-.1-.3-.4-.4-.9-.4h-.2l-.8 4zm9.3-5.9l-1.3 7.5h-2.8l1.3-7.5h2.8zm3.2 2.9l-.8 4.6H94l1.3-7.5h3.4l.8 4.5.8-4.5h2.4l-1.3 7.5H98l-.9-4.6zm12.8 4.3c-.7.2-1.3.3-2 .3-.7.1-1.2.1-1.8.1-1.1 0-2-.3-2.6-1s-.8-1.7-.6-2.9c.2-1.2.8-2.1 1.6-2.8.8-.7 1.9-1 3.2-1 1 0 1.8.2 2.2.7.4.4.7 1 .6 1.8h0-2.5c0-.2 0-.3-.1-.4-.1-.1-.2-.1-.4-.1-.4 0-.7.1-.9.4-.2.3-.4.9-.6 1.7-.1.7-.1 1.2 0 1.5s.3.4.8.4c.1 0 .2 0 .4-.1.1 0 .2-.1.4-.2l.1-.9h-1l.2-1.5h3.7l-.7 4z" fill="none" stroke="#fff" stroke-width=".5"></path><path d="M121.1 51.4l-.2 1.2h-3.6l.8-4.8h1.8l-.6 3.6h1.8zm4.2-3.6l-.2 1.3H124l-.6 3.6h-1.9l.6-3.6H121l.2-1.3h4.1zm-.3 4.8l.8-4.8h2.1c.9 0 1.5.2 1.8.6.3.4.4 1 .3 1.8s-.4 1.5-1 1.8c-.4.4-1.1.6-2 .6h-2zm2-1.1c.1 0 .1 0 0 0 .4 0 .7-.1.8-.3.1-.2.3-.6.3-1 .1-.4.1-.8 0-1s-.2-.3-.6-.3h-.2l-.3 2.6zm3.3 1.1l.2-1.5h1.6l-.2 1.5h-1.6z" fill="#00539f"></path><path d="M121.1 51.4l-.2 1.2h-3.6l.8-4.8h1.8l-.6 3.6h1.8zm4.2-3.6l-.2 1.3H124l-.6 3.6h-1.9l.6-3.6H121l.2-1.3h4.1zm-.3 4.8l.8-4.8h2.1c.9 0 1.5.2 1.8.6.3.4.4 1 .3 1.8s-.4 1.5-1 1.8c-.4.4-1.1.6-2 .6h-2 0zm2-1.1h0c.1 0 .1 0 0 0 .4 0 .7-.1.8-.3.1-.2.3-.6.3-1 .1-.4.1-.8 0-1s-.2-.3-.6-.3h-.2l-.3 2.6zm3.3 1.1l.2-1.5h1.6l-.2 1.5h-1.6z" fill="none" stroke="#fff" stroke-width=".5"></path><path d="M8.3 62.2h2.4c1.2 0 1.7.9 1.7 1.7 0 1.1-.7 2.1-2.2 2.1H8.7l-.4 2.3h-1l1-6.1zm3.1 1.7c0-.4-.2-.8-.7-.8H9.2l-.3 1.8h1.4c.8 0 1.1-.5 1.1-1zm3.4 3.9c-.2.2-.7.5-1.2.5-.8 0-1.3-.5-1.3-1.3 0-1.1.8-1.6 1.9-1.6.4 0 .8.1 1 .3v-.5c0-.4-.3-.6-.7-.6-.5 0-1 .2-1.4.4l-.1-.8c.4-.3 1-.5 1.7-.5.6 0 1.5.3 1.5 1.3 0 .1 0 .3-.1.5l-.5 2.7h-1l.2-.4zm.1-.8l.1-.6c-.2-.1-.5-.2-.9-.2-.5 0-.9.2-.9.7 0 .3.2.5.6.5.5 0 .8-.2 1.1-.4zm2.6-3.2h1l-.1.5c.2-.3.6-.6 1-.6.3 0 .5.1.7.3l-.3.9c-.2-.1-.4-.2-.6-.2-.4 0-.9.2-1 1.1l-.4 2.5h-1l.7-4.5zm3.2 3.7c0-.1 0-.4.1-.6l.4-2.2h-.7l.2-.9h.7l.3-1.5 1-.3-.3 1.8h1l-.1.9h-1l-.4 2.1c0 .2-.1.3-.1.3 0 .2.1.3.3.3.2 0 .4-.1.7-.2l-.2.9c-.3.1-.6.2-.9.2-.7 0-1-.3-1-.8zm3.1-3.7h1l-.1.4c.3-.3.7-.6 1.1-.6.9 0 1.3.6 1.3 1.4 0 .2 0 .4-.1.6l-.4 2.5h-1l.4-2.5v-.4c0-.4-.2-.7-.6-.7-.4 0-.9.3-1 1l-.4 2.7h-1l.8-4.4zm4 2.6c0-1.4.9-2.7 2.4-2.7 1 0 1.6.7 1.6 1.7 0 .3-.1.7-.2 1h-2.8v.1c0 .6.4.9.9.9.3 0 .7-.2 1-.4l.5.7c-.4.4-.9.7-1.6.7-1.1-.1-1.8-.8-1.8-2zm3-.9v-.3c-.1-.5-.4-.7-.8-.7-.6 0-1 .4-1.1 1h1.9zm2.2-1.7h1l-.1.5c.2-.3.6-.6 1-.6.3 0 .5.1.7.3l-.3.9c-.2-.1-.4-.2-.6-.2-.4 0-.9.2-1 1.1l-.4 2.5h-1l.7-4.5zm2.4 3.7l.7-.6c.2.2.5.5 1 .5.4 0 .7-.2.7-.5 0-.7-1.9-.7-1.9-1.9 0-.8.7-1.4 1.7-1.4.7 0 1.2.4 1.5.7l-.7.5c-.1-.2-.4-.4-.8-.4s-.6.2-.6.5c0 .6 1.9.6 1.9 1.9 0 .9-.7 1.4-1.8 1.4-.8.1-1.4-.2-1.7-.7zm6.8-3.7h1l-.8 4.4h-1l.8-4.4zm.1-1.1c0-.4.3-.7.6-.7s.5.2.5.5c0 .4-.3.7-.7.7-.2 0-.4-.2-.4-.5zm2.1 1.1h1l-.1.4c.3-.3.7-.6 1.1-.6.9 0 1.3.6 1.3 1.4 0 .2 0 .4-.1.6l-.4 2.5h-1l.4-2.5v-.4c0-.4-.2-.7-.6-.7-.4 0-.9.3-1 1l-.5 2.6h-1l.9-4.3zm6.9 4l-.1.4h-1l1-5.9 1.1-.3-.3 2.1c.2-.2.6-.4 1-.4.8 0 1.4.7 1.4 1.9 0 1.8-1 2.7-2.1 2.7-.5 0-.8-.2-1-.5zm2.1-2.2c0-.6-.3-1-.8-1-.3 0-.7.2-.8.4l-.3 1.9c.1.2.4.4.7.4.8 0 1.2-.7 1.2-1.7zm4.2 2.2c-.3.3-.7.5-1.2.5-.6 0-1.2-.4-1.2-1.4v-.5l.5-2.6h1l-.4 2.5v.4c0 .4.2.7.6.7.5 0 .9-.2 1.1-.9l.5-2.6h1l-.8 4.4h-1l-.1-.5zm2.9-4h1l-.8 4.4h-1l.8-4.4zm.1-1.1c0-.4.3-.7.6-.7s.5.2.5.5c0 .4-.3.7-.7.7-.2 0-.4-.2-.4-.5zm2.3-.4l1-.3-1.1 6.2h-1l1.1-5.9zm1.4 4.2c0-1.7 1-2.8 2.2-2.8.5 0 .8.2.9.4l.3-1.8 1-.3-1.1 6.2h-1l.1-.4c-.2.3-.6.5-1.1.5-.8 0-1.3-.8-1.3-1.8zm2.6.4l.3-1.8c-.1-.2-.3-.4-.7-.4-.8 0-1.2.8-1.2 1.7 0 .6.2 1 .7 1 .4-.1.7-.3.9-.5zm2.7-3.1h1l-.8 4.4h-1l.8-4.4zm.1-1.1c0-.4.3-.7.6-.7s.5.2.5.5c0 .4-.3.7-.7.7-.2 0-.4-.2-.4-.5zm2.1 1.1h1l-.1.4c.3-.3.7-.6 1.1-.6.9 0 1.3.6 1.3 1.4 0 .2 0 .4-.1.6l-.4 2.5h-1l.4-2.5v-.4c0-.4-.2-.7-.6-.7-.4 0-.9.3-1 1l-.4 2.7h-1l.8-4.4zm6.5 4.3l.1-.3c-.2.3-.6.4-1 .4-.9 0-1.4-.7-1.4-1.8 0-1.7 1-2.8 2.2-2.8.4 0 .7.2.9.4l.1-.3h1l-.9 4.3c-.3 1.4-1.1 1.8-2.4 1.9l-.3-.8c1.1 0 1.6-.4 1.7-1zm.2-1.2l.3-1.8c-.1-.2-.3-.4-.7-.4-.8 0-1.2.8-1.2 1.7 0 .6.2 1 .7 1 .4-.1.7-.2.9-.5zm6.3.9c-.2.2-.7.5-1.2.5-.8 0-1.3-.5-1.3-1.3 0-1.1.8-1.6 1.9-1.6.4 0 .8.1 1 .3v-.5c0-.4-.3-.6-.7-.6-.5 0-1 .2-1.4.4l-.1-.8c.4-.3 1-.5 1.7-.5.6 0 1.5.3 1.5 1.3 0 .1 0 .3-.1.5l-.5 2.7h-1l.2-.4zm.2-.8l.1-.6c-.2-.1-.5-.2-.9-.2-.5 0-.9.2-.9.7 0 .3.2.5.6.5.5 0 .8-.2 1.1-.4zm4.8.8l-.1.4h-1l1-5.9 1-.3-.4 2.1c.2-.2.6-.4 1-.4.8 0 1.4.7 1.4 1.9 0 1.8-1 2.7-2.1 2.7-.3 0-.7-.2-.8-.5zm2.1-2.2c0-.6-.3-1-.8-1-.3 0-.7.2-.8.4l-.3 1.9c.1.2.4.4.7.4.8 0 1.2-.7 1.2-1.7zm1.6.8c0-1.4.9-2.7 2.4-2.7 1 0 1.6.7 1.6 1.7 0 .3-.1.7-.2 1h-2.8v.1c0 .6.4.9.9.9.3 0 .7-.2 1-.4l.5.7c-.4.4-.9.7-1.6.7-1.1-.1-1.8-.8-1.8-2zm3-.9v-.3c-.1-.5-.4-.7-.8-.7-.6 0-1 .4-1.1 1h1.9zm1.7 2c0-.1 0-.4.1-.6l.4-2.2H98l.2-.9h.7l.3-1.5 1-.3-.3 1.8h1l-.1.9h-1l-.4 2.1c0 .2-.1.3-.1.3 0 .2.1.3.3.3.2 0 .4-.1.7-.2l-.2.9c-.3.1-.6.2-.9.2-.6 0-1-.3-1-.8zm2.9 0c0-.1 0-.4.1-.6l.4-2.2h-.7l.2-.9h.7l.3-1.5 1-.3-.3 1.8h1l-.1.9h-1l-.4 2.1c0 .2-.1.3-.1.3 0 .2.1.3.3.3.2 0 .4-.1.7-.2l-.2.9c-.3.1-.6.2-.9.2-.7 0-1-.3-1-.8zm2.7-1.1c0-1.4.9-2.7 2.4-2.7 1 0 1.6.7 1.6 1.7 0 .3-.1.7-.2 1h-2.8v.1c0 .6.4.9.9.9.3 0 .7-.2 1-.4l.5.7c-.4.4-.9.7-1.6.7-1.1-.1-1.8-.8-1.8-2zm3-.9v-.3c-.1-.5-.4-.7-.8-.7-.6 0-1 .4-1.1 1h1.9zm2.2-1.7h1l-.1.5c.2-.3.6-.6 1-.6.3 0 .5.1.7.3l-.3.9c-.2-.1-.4-.2-.6-.2-.4 0-.9.2-1 1.1l-.4 2.5h-1l.7-4.5zm5.7 4.4h-1l.6-3.5h-.6l.2-.9h.6l.1-.7c.2-.8.7-1 1.2-1 .3 0 .6.1.8.2l-.1.8c-.3-.1-.4-.1-.6-.1-.2 0-.3.1-.4.4l-.1.5h.9l-.2.9h-.9l-.5 3.4zm4.3-.4c-.3.3-.7.5-1.2.5-.6 0-1.2-.4-1.2-1.4v-.5l.5-2.6h1l-.4 2.5v.4c0 .4.2.7.6.7.5 0 .9-.2 1.1-.9l.5-2.6h1l-.8 4.4h-1l-.1-.5zm2.5-.3c0-.1 0-.4.1-.6l.4-2.2h-.7l.2-.9h.7l.3-1.5 1-.3-.3 1.8h1l-.1.9h-1l-.4 2.1c0 .2-.1.3-.1.3 0 .2.1.3.3.3.2 0 .4-.1.7-.2l-.2.9c-.3.1-.6.2-.9.2-.6 0-1-.3-1-.8zm5 .3c-.3.3-.7.5-1.2.5-.6 0-1.2-.4-1.2-1.4v-.5l.5-2.6h1l-.4 2.5v.4c0 .4.2.7.6.7.5 0 .9-.2 1.1-.9l.5-2.6h1l-.8 4.4h-1l-.1-.5zm2.9-4h1l-.1.5c.2-.3.6-.6 1-.6.3 0 .5.1.7.3l-.3.9c-.2-.1-.4-.2-.6-.2-.4 0-.9.2-1 1.1l-.4 2.5h-1l.7-4.5zm2.4 2.6c0-1.4.9-2.7 2.4-2.7 1 0 1.6.7 1.6 1.7 0 .3-.1.7-.2 1h-2.8v.1c0 .6.4.9.9.9.3 0 .7-.2 1-.4l.5.7c-.4.4-.9.7-1.6.7-1.1-.1-1.8-.8-1.8-2zm3.1-.9v-.3c-.1-.5-.4-.7-.8-.7-.6 0-1 .4-1.1 1h1.9z" fill="#01539e"></path></svg></svg></g></svg>